<svg width="120" height="57" viewBox="0 0 120 57" fill="none" xmlns="http://www.w3.org/2000/svg">
<path d="M19.4237 22.632C21.0077 23.496 22.0877 25.152 22.0877 27.336C22.0877 32.904 16.9997 34.8 14.3837 34.8C13.0637 34.8 11.2877 33.576 10.3037 32.784V15.096C10.3037 14.52 10.0397 14.28 9.67969 14.208H12.8957C12.5357 14.28 12.2717 14.52 12.2717 15.096V15.432C13.4477 14.664 14.8397 13.968 15.8717 13.968C18.3197 13.968 20.2397 16.416 20.2397 19.296C20.2397 20.712 19.9517 21.792 19.4237 22.632ZM14.9597 15.144C14.0717 15.144 13.1837 15.936 12.2717 16.656V23.64C13.6877 22.488 15.2957 21.912 16.5677 21.912C17.1197 21.912 17.6717 21.984 18.1997 22.128C18.4397 21.48 18.5837 20.76 18.5837 20.04C18.5837 17.112 16.6877 15.144 14.9597 15.144ZM15.4877 33.624C17.8397 33.624 20.2637 31.44 20.2637 27.912C20.2637 24.336 17.8397 23.088 15.5357 23.088C14.6717 23.088 13.2797 23.88 12.2717 25.248V32.112C13.2797 32.736 14.7197 33.624 15.4877 33.624ZM27.591 34.8H24.375C24.735 34.728 24.999 34.488 24.999 33.912V21.192C24.999 20.616 24.735 20.4 24.375 20.304H26.967V33.912C26.967 34.488 27.231 34.728 27.591 34.8ZM25.815 18.672C25.503 18.672 24.783 18.144 24.783 17.472C24.783 17.016 25.503 16.248 26.175 16.248C26.559 16.248 27.207 16.8 27.207 17.472C27.207 17.952 26.487 18.672 25.815 18.672ZM32.0434 24.264C32.0434 27.096 39.9634 25.8 39.9634 30C39.9634 33.312 36.8194 35.016 35.0434 35.016C33.0754 35.016 29.8594 33.336 29.8594 31.8C29.8594 31.104 30.9634 30.264 30.9634 30.264C31.5394 32.496 33.2674 34.08 35.7394 34.08C36.1954 34.08 38.1154 32.976 38.1154 30.624C38.1154 27.864 30.2434 29.256 30.2434 24.936C30.2434 21.84 33.9394 20.28 35.5474 20.28C36.8914 20.28 39.4114 21.96 39.4114 23.28C39.4114 23.784 38.6914 24.576 38.6914 24.576C37.9474 22.512 36.4354 21.192 34.9474 21.192C33.7954 21.192 32.0434 22.608 32.0434 24.264ZM49.737 31.104C49.737 31.104 50.817 32.16 50.817 32.736C50.817 34.008 49.713 34.92 48.753 34.92C47.505 34.92 43.761 33.288 43.761 30.192V21.264H41.625V20.376C43.161 20.376 44.961 18.624 44.961 16.368H45.729V20.376H48.321V21.264H45.729V31.416C45.729 33.024 47.337 33.816 47.793 33.816C48.729 33.816 49.521 32.928 49.737 31.104ZM72.1373 30.912C71.1293 33.768 68.3933 34.944 66.9293 34.944C64.2893 34.944 60.2812 32.832 60.2812 25.728C60.2812 17.712 65.2973 13.872 68.5853 13.872C71.4653 13.872 72.3533 15.84 72.3533 17.376C72.3533 17.952 72.2333 18.456 72.0413 18.768C71.5613 16.128 69.2093 15.048 67.6973 15.048C65.6813 15.048 62.0813 19.056 62.0813 25.416C62.0813 31.344 65.2733 33.408 67.9373 33.408C69.7853 33.408 71.3693 31.992 72.1373 30.912ZM85.1974 34.8H82.6054V32.376C81.3094 33.936 79.5814 34.848 77.9734 34.872C76.0534 34.872 74.1094 32.88 74.1094 29.76C74.1094 26.4 76.6534 24.144 79.9894 24.144C80.6854 24.144 81.4054 24.24 82.1494 24.432C81.3574 22.464 79.5814 21.672 78.1414 21.672C77.2054 21.672 76.2934 21.96 75.3334 22.848C75.8134 21.216 76.2454 20.136 78.3334 20.136C81.8854 20.136 84.5734 22.752 84.5734 26.568V33.912C84.5734 34.488 84.8374 34.728 85.1974 34.8ZM79.0054 34.008C80.4214 34.008 82.6054 31.416 82.6054 26.856C82.6054 26.256 82.5334 25.704 82.4134 25.224C81.7894 25.056 81.2134 24.984 80.6614 24.984C77.8054 24.984 75.9814 27.024 75.9814 29.304C75.9814 31.848 77.3014 34.008 79.0054 34.008ZM96.3488 22.32C96.3488 22.896 95.2688 23.952 95.2688 23.952C95.0528 22.128 94.2848 21.216 93.3248 21.216C92.8688 21.216 90.6608 22.656 90.0608 23.664V33.912C90.0608 34.488 90.3248 34.728 90.6848 34.8H87.4688C87.8048 34.728 88.0688 34.488 88.0688 33.912V21.192C88.0688 20.616 87.8048 20.4 87.4688 20.304H90.0608V22.464C90.7808 21.72 93.0608 20.136 94.2848 20.136C95.2448 20.136 96.3488 21.024 96.3488 22.32ZM108.724 34.8H106.132V32.688C105.436 33.456 103.708 34.92 102.244 34.92C99.5561 34.92 97.8281 31.968 97.8281 27.96C97.8281 23.232 101.212 20.184 103.78 20.184C104.62 20.184 105.388 20.448 106.132 20.952V14.352C106.132 13.776 105.868 13.56 105.532 13.464H108.124V33.912C108.124 34.488 108.388 34.728 108.724 34.8ZM106.132 31.344V23.088C105.412 21.864 104.044 21.12 103.396 21.12C102.076 21.12 99.7961 24.12 99.7961 27.672C99.7961 31.8 101.26 34.008 102.916 34.008C103.972 34.008 105.508 32.592 106.132 31.344Z" fill="black"/>
</svg>
