<svg width="338" height="153" viewBox="0 0 338 153" fill="none" xmlns="http://www.w3.org/2000/svg">
<path d="M149.847 89.264C153.015 90.992 155.175 94.304 155.175 98.672C155.175 109.808 144.999 113.6 139.767 113.6C137.127 113.6 133.575 111.152 131.607 109.568V74.192C131.607 73.04 131.079 72.56 130.359 72.416H136.791C136.071 72.56 135.543 73.04 135.543 74.192V74.864C137.895 73.328 140.679 71.936 142.743 71.936C147.639 71.936 151.479 76.832 151.479 82.592C151.479 85.424 150.903 87.584 149.847 89.264ZM140.919 74.288C139.143 74.288 137.367 75.872 135.543 77.312V91.28C138.375 88.976 141.591 87.824 144.135 87.824C145.239 87.824 146.343 87.968 147.399 88.256C147.879 86.96 148.167 85.52 148.167 84.08C148.167 78.224 144.375 74.288 140.919 74.288ZM141.975 111.248C146.679 111.248 151.527 106.88 151.527 99.824C151.527 92.672 146.679 90.176 142.071 90.176C140.343 90.176 137.559 91.76 135.543 94.496V108.224C137.559 109.472 140.439 111.248 141.975 111.248ZM166.182 113.6H159.75C160.47 113.456 160.998 112.976 160.998 111.824V86.384C160.998 85.232 160.47 84.8 159.75 84.608H164.934V111.824C164.934 112.976 165.462 113.456 166.182 113.6ZM162.63 81.344C162.006 81.344 160.566 80.288 160.566 78.944C160.566 78.032 162.006 76.496 163.35 76.496C164.118 76.496 165.414 77.6 165.414 78.944C165.414 79.904 163.974 81.344 162.63 81.344ZM175.087 92.528C175.087 98.192 190.927 95.6 190.927 104C190.927 110.624 184.639 114.032 181.087 114.032C177.151 114.032 170.719 110.672 170.719 107.6C170.719 106.208 172.927 104.528 172.927 104.528C174.079 108.992 177.535 112.16 182.479 112.16C183.391 112.16 187.231 109.952 187.231 105.248C187.231 99.728 171.487 102.512 171.487 93.872C171.487 87.68 178.879 84.56 182.095 84.56C184.783 84.56 189.823 87.92 189.823 90.56C189.823 91.568 188.383 93.152 188.383 93.152C186.895 89.024 183.871 86.384 180.895 86.384C178.591 86.384 175.087 89.216 175.087 92.528ZM210.474 106.208C210.474 106.208 212.634 108.32 212.634 109.472C212.634 112.016 210.426 113.84 208.506 113.84C206.01 113.84 198.522 110.576 198.522 104.384V86.528H194.25V84.752C197.322 84.752 200.922 81.248 200.922 76.736H202.458V84.752H207.642V86.528H202.458V106.832C202.458 110.048 205.674 111.632 206.586 111.632C208.458 111.632 210.042 109.856 210.474 106.208ZM255.275 105.824C253.259 111.536 247.787 113.888 244.859 113.888C239.579 113.888 231.562 109.664 231.562 95.456C231.562 79.424 241.595 71.744 248.171 71.744C253.931 71.744 255.707 75.68 255.707 78.752C255.707 79.904 255.467 80.912 255.083 81.536C254.123 76.256 249.419 74.096 246.395 74.096C242.363 74.096 235.163 82.112 235.163 94.832C235.163 106.688 241.547 110.816 246.875 110.816C250.571 110.816 253.739 107.984 255.275 105.824ZM281.395 113.6H276.211V108.752C273.619 111.872 270.163 113.696 266.947 113.744C263.107 113.744 259.219 109.76 259.219 103.52C259.219 96.8 264.307 92.288 270.979 92.288C272.371 92.288 273.811 92.48 275.299 92.864C273.715 88.928 270.163 87.344 267.283 87.344C265.411 87.344 263.587 87.92 261.667 89.696C262.627 86.432 263.491 84.272 267.667 84.272C274.771 84.272 280.147 89.504 280.147 97.136V111.824C280.147 112.976 280.675 113.456 281.395 113.6ZM269.011 112.016C271.843 112.016 276.211 106.832 276.211 97.712C276.211 96.512 276.067 95.408 275.827 94.448C274.579 94.112 273.427 93.968 272.323 93.968C266.611 93.968 262.963 98.048 262.963 102.608C262.963 107.696 265.603 112.016 269.011 112.016ZM303.698 88.64C303.698 89.792 301.538 91.904 301.538 91.904C301.106 88.256 299.57 86.432 297.65 86.432C296.738 86.432 292.322 89.312 291.122 91.328V111.824C291.122 112.976 291.65 113.456 292.37 113.6H285.938C286.61 113.456 287.138 112.976 287.138 111.824V86.384C287.138 85.232 286.61 84.8 285.938 84.608H291.122V88.928C292.562 87.44 297.122 84.272 299.57 84.272C301.49 84.272 303.698 86.048 303.698 88.64ZM328.448 113.6H323.264V109.376C321.872 110.912 318.416 113.84 315.488 113.84C310.112 113.84 306.656 107.936 306.656 99.92C306.656 90.464 313.424 84.368 318.56 84.368C320.24 84.368 321.776 84.896 323.264 85.904V72.704C323.264 71.552 322.736 71.12 322.064 70.928H327.248V111.824C327.248 112.976 327.776 113.456 328.448 113.6ZM323.264 106.688V90.176C321.824 87.728 319.088 86.24 317.792 86.24C315.152 86.24 310.592 92.24 310.592 99.344C310.592 107.6 313.52 112.016 316.832 112.016C318.944 112.016 322.016 109.184 323.264 106.688Z" fill="#222222"/>
<path d="M54 138.015C78.8528 138.015 99 117.868 99 93.0153C99 68.1625 78.8528 48.0153 54 48.0153C29.1472 48.0153 9 68.1625 9 93.0153C9 117.868 29.1472 138.015 54 138.015Z" stroke="#222222" stroke-width="7"/>
<path d="M9 15L9 90.903" stroke="#222222" stroke-width="7" stroke-linecap="round"/>
<mask id="mask0_92_442" style="mask-type:luminance" maskUnits="userSpaceOnUse" x="18" y="57" width="59" height="72">
<path d="M75.3704 117.5C76.2787 118.541 76.1764 120.128 75.0737 120.96C70.3867 124.495 64.8737 126.802 59.0381 127.651C52.3754 128.62 45.5744 127.647 39.4507 124.848C33.3271 122.05 28.1407 117.544 24.5134 111.872C20.8861 106.2 18.9717 99.6016 19.0001 92.869C19.0284 86.136 20.9977 79.5543 24.6727 73.9126C28.3474 68.271 33.5714 63.8093 39.7184 61.0619C45.8651 58.3146 52.6741 57.3986 59.3284 58.4236C65.1567 59.3216 70.6501 61.6749 75.3074 65.2489C76.4031 66.0899 76.4921 67.6783 75.5751 68.7113C74.6581 69.7443 73.0831 69.829 71.9774 69.0013C68.0474 66.059 63.4441 64.1183 58.5667 63.367C52.8634 62.4886 47.0277 63.2736 41.7594 65.6283C36.4907 67.9829 32.0134 71.8073 28.8637 76.6426C25.7141 81.478 24.0261 87.1193 24.0017 92.89C23.9777 98.6606 25.6184 104.316 28.7274 109.177C31.8364 114.039 36.2814 117.901 41.5301 120.299C46.7784 122.698 52.6074 123.532 58.3181 122.701C63.2014 121.991 67.8207 120.089 71.7754 117.18C72.8881 116.362 74.4621 116.459 75.3704 117.5Z" fill="white" stroke="#222222"/>
</mask>
<g mask="url(#mask0_92_442)">
<path d="M75.3704 117.5C76.2787 118.541 76.1764 120.128 75.0737 120.96C70.3867 124.495 64.8737 126.802 59.0381 127.651C52.3754 128.62 45.5744 127.647 39.4507 124.848C33.3271 122.05 28.1407 117.544 24.5134 111.872C20.8861 106.2 18.9717 99.6016 19.0001 92.869C19.0284 86.136 20.9977 79.5543 24.6727 73.9126C28.3474 68.271 33.5714 63.8093 39.7184 61.0619C45.8651 58.3146 52.6741 57.3986 59.3284 58.4236C65.1567 59.3216 70.6501 61.6749 75.3074 65.2489C76.4031 66.0899 76.4921 67.6783 75.5751 68.7113C74.6581 69.7443 73.0831 69.829 71.9774 69.0013C68.0474 66.059 63.4441 64.1183 58.5667 63.367C52.8634 62.4886 47.0277 63.2736 41.7594 65.6283C36.4907 67.9829 32.0134 71.8073 28.8637 76.6426C25.7141 81.478 24.0261 87.1193 24.0017 92.89C23.9777 98.6606 25.6184 104.316 28.7274 109.177C31.8364 114.039 36.2814 117.901 41.5301 120.299C46.7784 122.698 52.6074 123.532 58.3181 122.701C63.2014 121.991 67.8207 120.089 71.7754 117.18C72.8881 116.362 74.4621 116.459 75.3704 117.5Z" fill="#222222"/>
</g>
</svg>
