<svg width="360" height="220" viewBox="0 0 360 220" fill="none" xmlns="http://www.w3.org/2000/svg">
<g clip-path="url(#clip0_1182_4307)">
<rect width="360" height="220" fill="white"/>
<path d="M0 0H360V220H0V0Z" fill="#484848"/>
<path d="M140.898 106.387V107.02C140.898 107.285 140.902 107.547 140.91 107.805C140.918 108.062 140.941 108.316 140.98 108.566C140.988 108.652 141.031 108.723 141.109 108.777C141.195 108.832 141.281 108.859 141.367 108.859C141.57 108.859 141.754 108.824 141.918 108.754C142.082 108.684 142.254 108.621 142.434 108.566C142.809 108.441 143.117 108.324 143.359 108.215C143.609 108.105 143.828 107.98 144.016 107.84C144.203 107.699 144.379 107.531 144.543 107.336C144.715 107.133 144.91 106.883 145.129 106.586C145.215 106.492 145.293 106.391 145.363 106.281C145.441 106.172 145.488 106.062 145.504 105.953V105.73V105.203C145.504 105.188 145.516 105.137 145.539 105.051C145.57 104.965 145.586 104.918 145.586 104.91V104.863V104.828C145.547 104.672 145.508 104.504 145.469 104.324C145.438 104.137 145.398 103.965 145.352 103.809C145.328 103.715 145.281 103.594 145.211 103.445C145.141 103.297 145.062 103.148 144.977 103C144.891 102.852 144.805 102.715 144.719 102.59C144.633 102.465 144.559 102.383 144.496 102.344C144.48 102.336 144.438 102.328 144.367 102.32C144.297 102.305 144.262 102.289 144.262 102.273C144.254 102.258 144.23 102.211 144.191 102.133C144.152 102.047 144.133 101.992 144.133 101.969C144.125 101.969 144.109 101.957 144.086 101.934C144.07 101.926 144.059 101.918 144.051 101.91C143.848 101.816 143.641 101.723 143.43 101.629C143.219 101.535 143.004 101.434 142.785 101.324C142.746 101.316 142.672 101.305 142.562 101.289C142.453 101.273 142.336 101.258 142.211 101.242C142.094 101.227 141.98 101.211 141.871 101.195C141.762 101.18 141.688 101.172 141.648 101.172H141.59C141.387 101.172 141.23 101.242 141.121 101.383C141.012 101.516 140.965 101.691 140.98 101.91C140.988 102.668 140.977 103.414 140.945 104.148C140.914 104.883 140.898 105.629 140.898 106.387ZM140.758 116.207C140.758 116.457 140.785 116.656 140.84 116.805C140.895 116.953 140.984 117.129 141.109 117.332C141.109 117.348 141.121 117.375 141.145 117.414C141.176 117.453 141.191 117.477 141.191 117.484C141.207 117.484 141.25 117.488 141.32 117.496C141.391 117.504 141.434 117.508 141.449 117.508C141.605 117.508 141.742 117.473 141.859 117.402C141.984 117.332 142.125 117.289 142.281 117.273C142.422 117.266 142.551 117.262 142.668 117.262C142.793 117.254 142.914 117.246 143.031 117.238C143.148 117.23 143.266 117.215 143.383 117.191C143.5 117.16 143.625 117.109 143.758 117.039C143.773 117.031 143.801 117.016 143.84 116.992C143.887 116.961 143.934 116.93 143.98 116.898C144.027 116.867 144.07 116.84 144.109 116.816C144.156 116.793 144.188 116.781 144.203 116.781C144.211 116.773 144.234 116.762 144.273 116.746C144.32 116.723 144.367 116.703 144.414 116.688C144.469 116.664 144.516 116.648 144.555 116.641C144.602 116.625 144.629 116.617 144.637 116.617C144.668 116.609 144.719 116.578 144.789 116.523C144.867 116.461 144.914 116.422 144.93 116.406C144.945 116.383 144.984 116.336 145.047 116.266C145.109 116.188 145.18 116.102 145.258 116.008C145.336 115.914 145.41 115.82 145.48 115.727C145.551 115.633 145.605 115.562 145.645 115.516C145.676 115.484 145.707 115.445 145.738 115.398C145.777 115.352 145.797 115.32 145.797 115.305C145.867 115.156 145.918 115 145.949 114.836C145.988 114.664 146.039 114.5 146.102 114.344V113.254C146.062 113.215 146.035 113.168 146.02 113.113C146.004 113.059 145.996 113.008 145.996 112.961C145.996 112.914 146 112.867 146.008 112.82C146.016 112.773 146.02 112.734 146.02 112.703V112.668C146.004 112.551 145.961 112.438 145.891 112.328C145.82 112.211 145.785 112.086 145.785 111.953C145.785 111.938 145.785 111.922 145.785 111.906C145.793 111.891 145.797 111.875 145.797 111.859C145.773 111.828 145.727 111.77 145.656 111.684C145.594 111.598 145.52 111.508 145.434 111.414C145.355 111.32 145.277 111.234 145.199 111.156C145.129 111.078 145.078 111.023 145.047 110.992C145.047 110.977 145.016 110.941 144.953 110.887C144.891 110.824 144.859 110.785 144.859 110.77C144.844 110.754 144.828 110.719 144.812 110.664C144.805 110.602 144.801 110.559 144.801 110.535C144.777 110.527 144.746 110.508 144.707 110.477C144.676 110.438 144.652 110.414 144.637 110.406C144.457 110.266 144.262 110.145 144.051 110.043C143.848 109.941 143.637 109.855 143.418 109.785C143.199 109.715 142.977 109.652 142.75 109.598C142.523 109.543 142.301 109.488 142.082 109.434C142.066 109.434 142.035 109.43 141.988 109.422C141.949 109.406 141.906 109.391 141.859 109.375C141.812 109.359 141.766 109.344 141.719 109.328C141.68 109.312 141.656 109.301 141.648 109.293C141.578 109.285 141.5 109.301 141.414 109.34C141.328 109.379 141.246 109.43 141.168 109.492C141.09 109.555 141.023 109.625 140.969 109.703C140.922 109.773 140.898 109.836 140.898 109.891V111.625C140.914 111.656 140.93 111.711 140.945 111.789C140.969 111.859 140.98 111.902 140.98 111.918V111.977V112C140.98 112.008 140.969 112.031 140.945 112.07C140.93 112.109 140.914 112.137 140.898 112.152C140.898 112.285 140.902 112.406 140.91 112.516C140.918 112.625 140.922 112.734 140.922 112.844C140.922 112.961 140.914 113.074 140.898 113.184C140.883 113.293 140.855 113.414 140.816 113.547C140.801 113.562 140.789 113.582 140.781 113.605C140.766 113.652 140.758 113.68 140.758 113.688V113.723C140.758 113.793 140.766 113.859 140.781 113.922C140.805 113.984 140.816 114.059 140.816 114.145V114.262C140.816 114.27 140.805 114.305 140.781 114.367C140.766 114.43 140.758 114.465 140.758 114.473C140.758 114.496 140.766 114.539 140.781 114.602C140.805 114.656 140.816 114.691 140.816 114.707V114.953C140.816 115.156 140.805 115.367 140.781 115.586C140.766 115.797 140.758 116.004 140.758 116.207ZM135.566 117.859C135.566 117.773 135.59 117.695 135.637 117.625C135.691 117.555 135.754 117.492 135.824 117.438C135.902 117.383 135.984 117.336 136.07 117.297C136.156 117.258 136.23 117.223 136.293 117.191C136.551 117.215 136.82 117.227 137.102 117.227C137.25 117.227 137.395 117.219 137.535 117.203C137.676 117.18 137.801 117.137 137.91 117.074C138.02 117.004 138.105 116.91 138.168 116.793C138.23 116.676 138.262 116.52 138.262 116.324V113.547C138.246 113.516 138.23 113.453 138.215 113.359C138.207 113.266 138.203 113.203 138.203 113.172V113.102V113.043C138.203 113.02 138.207 112.969 138.215 112.891C138.223 112.812 138.227 112.727 138.227 112.633C138.234 112.539 138.242 112.453 138.25 112.375C138.258 112.289 138.262 112.234 138.262 112.211C138.262 112.148 138.262 112.027 138.262 111.848C138.27 111.668 138.273 111.48 138.273 111.285C138.281 111.082 138.285 110.891 138.285 110.711C138.293 110.523 138.297 110.395 138.297 110.324V109.949C138.305 109.879 138.309 109.746 138.309 109.551C138.316 109.355 138.32 109.152 138.32 108.941C138.328 108.723 138.332 108.516 138.332 108.32C138.34 108.125 138.344 107.992 138.344 107.922C138.344 107.906 138.34 107.879 138.332 107.84C138.324 107.793 138.312 107.746 138.297 107.699C138.289 107.645 138.281 107.598 138.273 107.559C138.266 107.512 138.262 107.48 138.262 107.465V107.383V107.324C138.262 107.309 138.266 107.277 138.273 107.23C138.281 107.176 138.289 107.121 138.297 107.066C138.305 107.012 138.312 106.961 138.32 106.914C138.328 106.859 138.336 106.82 138.344 106.797V103.434C138.344 103.23 138.367 103.043 138.414 102.871C138.469 102.691 138.496 102.492 138.496 102.273C138.496 102.062 138.465 101.887 138.402 101.746C138.348 101.598 138.227 101.457 138.039 101.324C137.992 101.34 137.906 101.348 137.781 101.348C137.664 101.348 137.543 101.348 137.418 101.348C137.285 101.348 137.16 101.348 137.043 101.348C136.934 101.348 136.859 101.34 136.82 101.324C136.75 101.324 136.66 101.305 136.551 101.266C136.449 101.227 136.344 101.184 136.234 101.137C136.133 101.082 136.039 101.023 135.953 100.961C135.867 100.898 135.809 100.844 135.777 100.797C135.879 100.641 135.988 100.547 136.105 100.516C136.223 100.477 136.352 100.457 136.492 100.457H136.938C136.961 100.457 137.012 100.445 137.09 100.422C137.176 100.391 137.227 100.375 137.242 100.375C137.25 100.375 137.27 100.379 137.301 100.387C137.332 100.395 137.363 100.406 137.395 100.422C137.426 100.43 137.453 100.438 137.477 100.445C137.508 100.453 137.527 100.457 137.535 100.457H138.789C138.844 100.488 138.906 100.512 138.977 100.527C139.047 100.535 139.117 100.539 139.188 100.539H139.457H139.598L139.691 100.562C139.754 100.578 139.789 100.59 139.797 100.598H140.547H140.816C140.84 100.598 140.883 100.602 140.945 100.609C141.016 100.617 141.086 100.625 141.156 100.633C141.227 100.641 141.293 100.648 141.355 100.656C141.418 100.664 141.461 100.672 141.484 100.68L141.648 100.598H142.867C142.898 100.582 142.965 100.57 143.066 100.562C143.168 100.547 143.227 100.539 143.242 100.539L143.289 100.516C143.32 100.5 143.336 100.492 143.336 100.492C144.031 100.492 144.703 100.594 145.352 100.797L145.422 100.867C145.625 101.008 145.836 101.129 146.055 101.23C146.273 101.332 146.484 101.438 146.688 101.547L146.711 101.57C146.734 101.594 146.754 101.609 146.77 101.617C146.77 101.633 146.789 101.672 146.828 101.734C146.867 101.789 146.891 101.824 146.898 101.84C146.906 101.855 146.918 101.867 146.934 101.875C146.941 101.898 146.957 101.91 146.98 101.91C147.16 102.137 147.324 102.359 147.473 102.578C147.621 102.797 147.75 103.023 147.859 103.258C147.969 103.492 148.051 103.738 148.105 103.996C148.168 104.254 148.199 104.531 148.199 104.828V104.91C148.199 104.926 148.195 104.961 148.188 105.016C148.18 105.07 148.172 105.133 148.164 105.203C148.164 105.266 148.16 105.324 148.152 105.379C148.145 105.434 148.141 105.473 148.141 105.496V105.812V105.953C148.117 106.023 148.09 106.09 148.059 106.152C148.035 106.207 148.008 106.262 147.977 106.316C147.945 106.363 147.922 106.406 147.906 106.445C147.836 106.625 147.758 106.828 147.672 107.055C147.594 107.281 147.488 107.473 147.355 107.629C147.34 107.637 147.297 107.645 147.227 107.652C147.156 107.66 147.121 107.672 147.121 107.688C147.105 107.703 147.066 107.742 147.004 107.805C146.949 107.859 146.914 107.898 146.898 107.922C146.891 107.93 146.855 107.945 146.793 107.969C146.738 107.992 146.676 108.02 146.605 108.051C146.543 108.082 146.48 108.113 146.418 108.145C146.363 108.176 146.328 108.199 146.312 108.215C146.281 108.238 146.23 108.285 146.16 108.355C146.09 108.418 146.016 108.488 145.938 108.566C145.859 108.637 145.785 108.707 145.715 108.777C145.652 108.848 145.609 108.898 145.586 108.93C145.594 108.961 145.621 108.984 145.668 109C145.715 109.016 145.766 109.027 145.82 109.035C145.875 109.035 145.93 109.039 145.984 109.047C146.039 109.047 146.078 109.051 146.102 109.059C146.109 109.082 146.152 109.121 146.23 109.176C146.309 109.223 146.363 109.262 146.395 109.293C146.402 109.309 146.438 109.348 146.5 109.41C146.562 109.465 146.598 109.5 146.605 109.516C146.613 109.523 146.633 109.539 146.664 109.562C146.703 109.578 146.742 109.598 146.781 109.621C146.82 109.645 146.859 109.668 146.898 109.691C146.938 109.715 146.965 109.727 146.98 109.727C147.215 109.914 147.426 110.133 147.613 110.383C147.801 110.633 147.977 110.883 148.141 111.133C148.148 111.141 148.164 111.164 148.188 111.203C148.219 111.234 148.25 111.273 148.281 111.32C148.312 111.359 148.344 111.398 148.375 111.438C148.406 111.477 148.426 111.5 148.434 111.508C148.496 111.609 148.559 111.758 148.621 111.953C148.684 112.148 148.738 112.352 148.785 112.562C148.832 112.773 148.871 112.98 148.902 113.184C148.934 113.379 148.949 113.535 148.949 113.652C148.949 113.762 148.93 113.879 148.891 114.004C148.859 114.129 148.828 114.242 148.797 114.344C148.781 114.391 148.766 114.461 148.75 114.555C148.742 114.641 148.738 114.691 148.738 114.707V115.07C148.715 115.164 148.672 115.277 148.609 115.41C148.547 115.543 148.488 115.652 148.434 115.738C148.371 115.848 148.301 115.969 148.223 116.102C148.145 116.234 148.059 116.363 147.965 116.488C147.871 116.613 147.773 116.73 147.672 116.84C147.57 116.949 147.465 117.039 147.355 117.109C147.332 117.125 147.285 117.152 147.215 117.191C147.145 117.23 147.066 117.273 146.98 117.32C146.895 117.359 146.816 117.398 146.746 117.438C146.676 117.469 146.629 117.484 146.605 117.484C146.535 117.523 146.477 117.559 146.43 117.59C146.391 117.613 146.348 117.637 146.301 117.66C146.254 117.684 146.203 117.707 146.148 117.73C146.094 117.754 146.023 117.773 145.938 117.789C145.852 117.805 145.746 117.824 145.621 117.848C145.496 117.871 145.371 117.895 145.246 117.918C145.105 117.949 144.957 117.977 144.801 118H140.758C140.742 118.008 140.707 118.016 140.652 118.023C140.605 118.031 140.555 118.039 140.5 118.047C140.445 118.055 140.391 118.062 140.336 118.07C140.289 118.078 140.254 118.082 140.23 118.082H138.039C137.93 118.113 137.824 118.133 137.723 118.141C137.629 118.148 137.531 118.152 137.43 118.152H136.938H136.668C136.652 118.152 136.613 118.16 136.551 118.176C136.496 118.199 136.461 118.211 136.445 118.211H136.258C136.211 118.211 136.148 118.207 136.07 118.199C135.992 118.191 135.914 118.172 135.836 118.141C135.766 118.117 135.703 118.082 135.648 118.035C135.594 117.988 135.566 117.93 135.566 117.859ZM184.539 117.766C184.344 117.656 184.141 117.562 183.93 117.484C183.727 117.406 183.523 117.301 183.32 117.168C183.305 117.168 183.277 117.156 183.238 117.133C183.199 117.102 183.16 117.07 183.121 117.039C183.082 117.008 183.043 116.977 183.004 116.945C182.973 116.914 182.953 116.891 182.945 116.875C182.844 116.812 182.742 116.758 182.641 116.711C182.539 116.664 182.445 116.609 182.359 116.547L181.609 115.797C181.594 115.781 181.555 115.754 181.492 115.715C181.438 115.676 181.406 115.656 181.398 115.656C181.398 115.602 181.371 115.574 181.316 115.574C181.207 115.418 181.086 115.266 180.953 115.117C180.828 114.961 180.711 114.793 180.602 114.613C180.594 114.613 180.57 114.574 180.531 114.496C180.5 114.418 180.48 114.359 180.473 114.32C180.105 113.602 179.781 112.871 179.5 112.129C179.492 112.121 179.465 112.074 179.418 111.988C179.371 111.902 179.348 111.852 179.348 111.836V111.391C179.324 111.141 179.293 110.902 179.254 110.676C179.223 110.441 179.207 110.199 179.207 109.949V109.574C179.215 109.496 179.223 109.359 179.23 109.164C179.246 108.961 179.262 108.746 179.277 108.52C179.293 108.293 179.305 108.082 179.312 107.887C179.328 107.684 179.34 107.539 179.348 107.453C179.363 107.234 179.41 107.031 179.488 106.844C179.574 106.656 179.652 106.465 179.723 106.27C179.723 106.262 179.727 106.242 179.734 106.211C179.742 106.18 179.75 106.145 179.758 106.105C179.766 106.059 179.773 106.02 179.781 105.988C179.789 105.949 179.793 105.922 179.793 105.906C179.801 105.891 179.812 105.855 179.828 105.801C179.852 105.738 179.875 105.676 179.898 105.613C179.93 105.551 179.953 105.492 179.969 105.438C179.992 105.375 180.008 105.336 180.016 105.32C180.016 105.312 180.02 105.293 180.027 105.262C180.035 105.223 180.043 105.184 180.051 105.145C180.059 105.098 180.066 105.059 180.074 105.027C180.082 104.988 180.09 104.961 180.098 104.945C180.098 104.938 180.113 104.918 180.145 104.887C180.184 104.855 180.223 104.82 180.262 104.781C180.309 104.734 180.352 104.695 180.391 104.664C180.43 104.625 180.457 104.602 180.473 104.594C180.652 104.375 180.824 104.152 180.988 103.926C181.16 103.699 181.348 103.48 181.551 103.27C181.926 102.863 182.312 102.492 182.711 102.156C183.109 101.82 183.574 101.562 184.105 101.383C184.16 101.359 184.223 101.328 184.293 101.289C184.371 101.25 184.449 101.211 184.527 101.172C184.605 101.133 184.684 101.098 184.762 101.066C184.848 101.035 184.926 101.016 184.996 101.008H185.289C185.305 101.008 185.348 101 185.418 100.984C185.488 100.961 185.543 100.941 185.582 100.926C185.613 100.918 185.668 100.902 185.746 100.879C185.832 100.848 185.922 100.816 186.016 100.785C186.109 100.754 186.199 100.727 186.285 100.703C186.371 100.672 186.434 100.648 186.473 100.633H187.914C188.148 100.633 188.34 100.637 188.488 100.645C188.637 100.652 188.758 100.66 188.852 100.668C188.945 100.676 189.016 100.684 189.062 100.691C189.109 100.699 189.145 100.707 189.168 100.715C189.207 100.723 189.309 100.75 189.473 100.797C189.637 100.836 189.812 100.883 190 100.938C190.188 100.984 190.363 101.031 190.527 101.078C190.691 101.117 190.797 101.141 190.844 101.148C190.875 101.148 190.941 101.16 191.043 101.184C191.145 101.199 191.203 101.215 191.219 101.23C191.227 101.23 191.25 101.246 191.289 101.277C191.336 101.309 191.383 101.344 191.43 101.383C191.477 101.414 191.52 101.445 191.559 101.477C191.605 101.5 191.637 101.516 191.652 101.523C191.668 101.523 191.715 101.535 191.793 101.559C191.879 101.582 191.93 101.598 191.945 101.605C192.008 101.652 192.066 101.711 192.121 101.781C192.176 101.844 192.23 101.906 192.285 101.969C192.348 102.031 192.41 102.086 192.473 102.133C192.543 102.172 192.625 102.191 192.719 102.191C192.812 102.191 192.891 102.125 192.953 101.992C193.023 101.859 193.09 101.715 193.152 101.559C193.215 101.402 193.281 101.258 193.352 101.125C193.422 100.992 193.512 100.926 193.621 100.926C193.699 100.926 193.762 100.969 193.809 101.055C193.863 101.133 193.902 101.227 193.926 101.336C193.957 101.445 193.977 101.555 193.984 101.664C193.992 101.773 193.996 101.852 193.996 101.898C193.996 101.969 193.992 102.027 193.984 102.074C193.977 102.113 193.953 102.164 193.914 102.227V105.613C193.914 105.77 193.883 105.914 193.82 106.047C193.766 106.172 193.652 106.246 193.48 106.27C193.441 106.277 193.402 106.266 193.363 106.234C193.324 106.203 193.289 106.168 193.258 106.129C193.227 106.082 193.195 106.039 193.164 106C193.141 105.953 193.121 105.922 193.105 105.906C193.105 105.891 193.07 105.855 193 105.801C192.938 105.738 192.902 105.695 192.895 105.672C192.871 105.641 192.832 105.59 192.777 105.52C192.73 105.449 192.68 105.379 192.625 105.309C192.578 105.23 192.531 105.156 192.484 105.086C192.438 105.016 192.41 104.969 192.402 104.945C192.301 104.797 192.227 104.633 192.18 104.453C192.141 104.266 192.062 104.094 191.945 103.938C191.812 103.758 191.68 103.609 191.547 103.492C191.422 103.375 191.285 103.25 191.137 103.117C190.965 102.969 190.816 102.836 190.691 102.719C190.566 102.594 190.441 102.484 190.316 102.391C190.191 102.297 190.051 102.215 189.895 102.145C189.746 102.066 189.559 101.996 189.332 101.934C189.035 101.863 188.727 101.797 188.406 101.734C188.094 101.672 187.789 101.641 187.492 101.641C187.336 101.641 187.184 101.668 187.035 101.723C186.895 101.777 186.754 101.848 186.613 101.934C186.473 102.012 186.332 102.102 186.191 102.203C186.059 102.297 185.93 102.383 185.805 102.461C185.695 102.531 185.582 102.578 185.465 102.602C185.348 102.625 185.238 102.68 185.137 102.766C184.926 102.945 184.73 103.145 184.551 103.363C184.379 103.582 184.18 103.773 183.953 103.938C183.938 103.953 183.914 103.98 183.883 104.02C183.852 104.051 183.828 104.07 183.812 104.078C183.812 104.094 183.789 104.152 183.742 104.254C183.695 104.355 183.668 104.422 183.66 104.453C183.629 104.508 183.582 104.574 183.52 104.652C183.465 104.723 183.406 104.797 183.344 104.875C183.289 104.945 183.234 105.02 183.18 105.098C183.133 105.176 183.102 105.25 183.086 105.32C183.039 105.523 183.008 105.723 182.992 105.918C182.977 106.105 182.938 106.301 182.875 106.504C182.812 106.668 182.754 106.832 182.699 106.996C182.645 107.152 182.602 107.328 182.57 107.523C182.555 107.625 182.543 107.754 182.535 107.91C182.535 108.066 182.504 108.199 182.441 108.309C182.426 108.363 182.414 108.457 182.406 108.59C182.398 108.723 182.391 108.863 182.383 109.012C182.375 109.16 182.367 109.301 182.359 109.434C182.359 109.566 182.359 109.66 182.359 109.715C182.359 109.949 182.379 110.195 182.418 110.453C182.465 110.711 182.52 110.973 182.582 111.238C182.652 111.504 182.727 111.766 182.805 112.023C182.883 112.273 182.957 112.508 183.027 112.727C183.027 112.734 183.031 112.766 183.039 112.82C183.055 112.875 183.07 112.938 183.086 113.008C183.102 113.07 183.117 113.133 183.133 113.195C183.148 113.25 183.16 113.289 183.168 113.312C183.168 113.336 183.188 113.379 183.227 113.441C183.273 113.504 183.32 113.574 183.367 113.652C183.422 113.723 183.473 113.789 183.52 113.852C183.566 113.906 183.598 113.938 183.613 113.945C183.621 113.961 183.637 113.996 183.66 114.051C183.691 114.098 183.719 114.152 183.742 114.215C183.773 114.27 183.801 114.324 183.824 114.379C183.855 114.426 183.871 114.457 183.871 114.473C183.98 114.605 184.086 114.723 184.188 114.824C184.289 114.926 184.391 115.02 184.492 115.105C184.602 115.191 184.711 115.277 184.82 115.363C184.938 115.449 185.066 115.547 185.207 115.656L185.43 115.879C185.562 115.941 185.727 116.027 185.922 116.137C186.125 116.238 186.281 116.375 186.391 116.547C186.75 116.578 187.098 116.637 187.434 116.723C187.777 116.801 188.133 116.84 188.5 116.84H188.734C188.844 116.84 188.949 116.836 189.051 116.828C189.152 116.82 189.266 116.789 189.391 116.734C189.398 116.734 189.414 116.73 189.438 116.723C189.469 116.707 189.5 116.691 189.531 116.676C189.562 116.652 189.59 116.637 189.613 116.629C189.637 116.613 189.652 116.605 189.66 116.605C189.684 116.598 189.738 116.582 189.824 116.559C189.918 116.535 190.012 116.512 190.105 116.488C190.207 116.465 190.301 116.445 190.387 116.43C190.473 116.406 190.527 116.391 190.551 116.383C190.559 116.383 190.59 116.363 190.645 116.324C190.707 116.285 190.746 116.258 190.762 116.242C190.77 116.234 190.789 116.219 190.82 116.195C190.852 116.164 190.883 116.137 190.914 116.113C190.953 116.082 190.984 116.059 191.008 116.043C191.039 116.02 191.055 116.008 191.055 116.008C191.078 116 191.117 115.988 191.172 115.973C191.234 115.957 191.277 115.949 191.301 115.949C191.309 115.934 191.316 115.922 191.324 115.914L191.359 115.879C191.391 115.84 191.434 115.781 191.488 115.703C191.551 115.625 191.613 115.547 191.676 115.469C191.738 115.391 191.793 115.32 191.84 115.258C191.895 115.188 191.93 115.145 191.945 115.129C191.953 115.121 191.977 115.094 192.016 115.047C192.055 114.992 192.094 114.938 192.133 114.883C192.172 114.82 192.211 114.766 192.25 114.719C192.289 114.664 192.312 114.629 192.32 114.613C192.328 114.605 192.344 114.59 192.367 114.566C192.398 114.543 192.43 114.516 192.461 114.484C192.492 114.453 192.52 114.422 192.543 114.391C192.574 114.359 192.59 114.336 192.59 114.32C192.605 114.32 192.621 114.289 192.637 114.227C192.66 114.156 192.672 114.113 192.672 114.098C192.68 114.082 192.699 114.043 192.73 113.98C192.762 113.918 192.793 113.852 192.824 113.781C192.855 113.703 192.883 113.633 192.906 113.57C192.938 113.508 192.957 113.469 192.965 113.453C192.973 113.438 192.984 113.402 193 113.348C193.016 113.285 193.031 113.223 193.047 113.16C193.062 113.098 193.074 113.039 193.082 112.984C193.098 112.922 193.105 112.883 193.105 112.867C193.121 112.836 193.141 112.797 193.164 112.75C193.188 112.695 193.211 112.645 193.234 112.598C193.266 112.551 193.301 112.512 193.34 112.48C193.387 112.449 193.434 112.434 193.48 112.434C193.52 112.434 193.559 112.438 193.598 112.445C193.645 112.445 193.68 112.465 193.703 112.504C193.719 112.527 193.738 112.562 193.762 112.609C193.785 112.656 193.809 112.703 193.832 112.75C193.855 112.797 193.875 112.84 193.891 112.879C193.906 112.91 193.914 112.93 193.914 112.938C193.914 112.953 193.906 112.992 193.891 113.055C193.883 113.117 193.871 113.188 193.855 113.266C193.84 113.344 193.824 113.418 193.809 113.488C193.793 113.551 193.781 113.59 193.773 113.605C193.75 113.738 193.723 113.895 193.691 114.074C193.66 114.246 193.629 114.426 193.598 114.613C193.574 114.801 193.551 114.988 193.527 115.176C193.504 115.355 193.488 115.516 193.48 115.656V116.172V116.383C193.465 116.438 193.445 116.484 193.422 116.523C193.406 116.562 193.391 116.602 193.375 116.641C193.359 116.68 193.344 116.711 193.328 116.734C193.305 116.805 193.289 116.852 193.281 116.875C193.281 116.891 193.25 116.898 193.188 116.898C193.117 116.898 193.059 116.855 193.012 116.77C192.973 116.684 192.93 116.59 192.883 116.488C192.844 116.379 192.793 116.281 192.73 116.195C192.676 116.109 192.598 116.066 192.496 116.066C192.418 116.066 192.379 116.07 192.379 116.078C192.387 116.086 192.367 116.117 192.32 116.172C192 116.438 191.672 116.676 191.336 116.887C191 117.09 190.641 117.258 190.258 117.391C190.086 117.469 189.922 117.555 189.766 117.648C189.609 117.742 189.438 117.809 189.25 117.848C189.117 117.863 188.98 117.879 188.84 117.895C188.699 117.902 188.586 117.957 188.5 118.059L186.812 118.211C186.453 118.078 186.078 117.984 185.688 117.93C185.297 117.867 184.914 117.812 184.539 117.766Z" fill="#CD0000"/>
<path d="M152.465 102.016C152.465 101.867 152.492 101.727 152.547 101.594C152.602 101.453 152.676 101.332 152.77 101.23C152.863 101.129 152.973 101.047 153.098 100.984C153.23 100.922 153.375 100.891 153.531 100.891C153.68 100.891 153.836 100.918 154 100.973C154.164 101.02 154.316 101.09 154.457 101.184C154.598 101.277 154.715 101.395 154.809 101.535C154.902 101.668 154.949 101.82 154.949 101.992C154.949 102.227 154.914 102.426 154.844 102.59C154.773 102.746 154.676 102.875 154.551 102.977C154.426 103.07 154.273 103.141 154.094 103.188C153.922 103.234 153.734 103.258 153.531 103.258C153.492 103.258 153.422 103.254 153.32 103.246C153.219 103.238 153.152 103.234 153.121 103.234C152.918 103.078 152.758 102.902 152.641 102.707C152.523 102.504 152.465 102.273 152.465 102.016ZM150.754 117.719C150.754 117.594 150.836 117.516 151 117.484C151.164 117.445 151.348 117.422 151.551 117.414C151.762 117.398 151.957 117.383 152.137 117.367C152.316 117.344 152.426 117.285 152.465 117.191C152.527 117.035 152.57 116.871 152.594 116.699C152.617 116.527 152.629 116.352 152.629 116.172C152.629 116.031 152.625 115.891 152.617 115.75C152.609 115.609 152.605 115.473 152.605 115.34V115.141C152.621 114.789 152.648 114.441 152.688 114.098C152.727 113.746 152.75 113.387 152.758 113.02V110.184C152.797 110.098 152.82 110.023 152.828 109.961C152.836 109.891 152.84 109.812 152.84 109.727C152.84 109.617 152.809 109.535 152.746 109.48C152.684 109.426 152.609 109.387 152.523 109.363C152.438 109.34 152.348 109.328 152.254 109.328C152.16 109.32 152.086 109.309 152.031 109.293C151.961 109.293 151.887 109.285 151.809 109.27C151.73 109.254 151.656 109.23 151.586 109.199C151.523 109.16 151.469 109.113 151.422 109.059C151.383 109.004 151.363 108.938 151.363 108.859C151.363 108.781 151.383 108.723 151.422 108.684C151.461 108.637 151.508 108.605 151.562 108.59C151.625 108.566 151.688 108.551 151.75 108.543C151.82 108.535 151.887 108.523 151.949 108.508C151.957 108.508 151.984 108.5 152.031 108.484C152.078 108.469 152.125 108.453 152.172 108.438C152.219 108.414 152.262 108.395 152.301 108.379C152.348 108.363 152.375 108.355 152.383 108.355C152.406 108.355 152.457 108.352 152.535 108.344C152.613 108.336 152.699 108.328 152.793 108.32C152.887 108.312 152.973 108.305 153.051 108.297C153.129 108.289 153.176 108.281 153.191 108.273C153.316 108.242 153.445 108.199 153.578 108.145C153.719 108.09 153.855 108.035 153.988 107.98C154.121 107.926 154.254 107.879 154.387 107.84C154.527 107.801 154.668 107.781 154.809 107.781H154.902C154.973 107.781 155.016 107.801 155.031 107.84V108.133C155.031 108.57 155 109 154.938 109.422C154.875 109.844 154.844 110.273 154.844 110.711C154.844 110.883 154.859 111.039 154.891 111.18C154.93 111.312 154.949 111.453 154.949 111.602C154.949 111.672 154.945 111.73 154.938 111.777C154.938 111.816 154.922 111.871 154.891 111.941C154.898 112.551 154.883 113.16 154.844 113.77C154.805 114.379 154.785 114.988 154.785 115.598V116.008C154.785 116.211 154.789 116.41 154.797 116.605C154.805 116.793 154.836 116.988 154.891 117.191C154.938 117.262 154.988 117.312 155.043 117.344C155.098 117.375 155.156 117.398 155.219 117.414C155.281 117.422 155.348 117.43 155.418 117.438C155.488 117.438 155.566 117.453 155.652 117.484C155.676 117.484 155.711 117.496 155.758 117.52C155.805 117.535 155.855 117.555 155.91 117.578C155.965 117.602 156.016 117.625 156.062 117.648C156.117 117.672 156.16 117.691 156.191 117.707L156.262 117.766V117.824C156.262 117.863 156.242 117.895 156.203 117.918C156.172 117.941 156.133 117.961 156.086 117.977C156.047 117.984 156.004 117.992 155.957 118C155.918 118 155.895 118 155.887 118C155.129 117.984 154.375 117.992 153.625 118.023C152.875 118.062 152.121 118.082 151.363 118.082C151.301 118.082 151.234 118.078 151.164 118.07C151.094 118.07 151.027 118.059 150.965 118.035C150.91 118.012 150.859 117.977 150.812 117.93C150.773 117.883 150.754 117.812 150.754 117.719ZM157.703 115.914V115.891C157.711 115.852 157.719 115.797 157.727 115.727C157.734 115.656 157.742 115.586 157.75 115.516C157.758 115.445 157.766 115.383 157.773 115.328C157.781 115.266 157.785 115.23 157.785 115.223C157.793 115.168 157.801 115.102 157.809 115.023C157.824 114.938 157.848 114.855 157.879 114.777C157.91 114.691 157.949 114.621 157.996 114.566C158.043 114.504 158.105 114.473 158.184 114.473C158.23 114.473 158.266 114.477 158.289 114.484C158.312 114.492 158.34 114.523 158.371 114.578C158.402 114.664 158.422 114.758 158.43 114.859C158.445 114.953 158.473 115.047 158.512 115.141C158.512 115.156 158.52 115.184 158.535 115.223C158.559 115.254 158.578 115.281 158.594 115.305C158.672 115.469 158.758 115.656 158.852 115.867C158.945 116.07 159.047 116.27 159.156 116.465C159.273 116.66 159.402 116.84 159.543 117.004C159.691 117.16 159.859 117.27 160.047 117.332C160.062 117.348 160.109 117.355 160.188 117.355C160.258 117.355 160.332 117.352 160.41 117.344C160.488 117.336 160.539 117.332 160.562 117.332C160.57 117.332 160.613 117.348 160.691 117.379C160.77 117.402 160.824 117.414 160.855 117.414H160.938H160.996C161.238 117.367 161.457 117.301 161.652 117.215C161.855 117.129 162.027 117.02 162.168 116.887C162.309 116.754 162.418 116.594 162.496 116.406C162.574 116.211 162.613 115.98 162.613 115.715V115.363C162.598 115.332 162.57 115.273 162.531 115.188C162.5 115.094 162.465 114.996 162.426 114.895C162.387 114.793 162.348 114.699 162.309 114.613C162.277 114.527 162.254 114.469 162.238 114.438C162.168 114.312 162.082 114.207 161.98 114.121C161.879 114.027 161.77 113.949 161.652 113.887C161.535 113.816 161.414 113.754 161.289 113.699C161.164 113.645 161.047 113.594 160.938 113.547C160.898 113.547 160.863 113.535 160.832 113.512C160.809 113.504 160.789 113.492 160.773 113.477C160.766 113.461 160.73 113.434 160.668 113.395C160.605 113.355 160.57 113.336 160.562 113.336C160.531 113.336 160.465 113.328 160.363 113.312C160.262 113.289 160.203 113.27 160.188 113.254C160.156 113.238 160.105 113.215 160.035 113.184C159.973 113.152 159.902 113.117 159.824 113.078C159.746 113.039 159.672 113.004 159.602 112.973C159.539 112.934 159.492 112.902 159.461 112.879C159.414 112.848 159.344 112.805 159.25 112.75C159.164 112.695 159.078 112.641 158.992 112.586C158.914 112.531 158.84 112.484 158.77 112.445C158.707 112.406 158.676 112.387 158.676 112.387C158.551 112.301 158.441 112.176 158.348 112.012C158.262 111.84 158.191 111.695 158.137 111.578C158.121 111.531 158.102 111.477 158.078 111.414C158.055 111.352 158.031 111.289 158.008 111.227C157.984 111.164 157.965 111.113 157.949 111.074C157.934 111.027 157.926 111 157.926 110.992V109.691C157.926 109.676 157.934 109.641 157.949 109.586C157.973 109.531 157.988 109.488 157.996 109.457C158.027 109.402 158.07 109.32 158.125 109.211C158.18 109.102 158.234 108.992 158.289 108.883C158.344 108.773 158.391 108.676 158.43 108.59C158.477 108.504 158.504 108.453 158.512 108.438C158.566 108.344 158.633 108.27 158.711 108.215C158.789 108.16 158.867 108.109 158.945 108.062C159.031 108.016 159.109 107.969 159.18 107.922C159.258 107.867 159.324 107.801 159.379 107.723C159.41 107.715 159.461 107.703 159.531 107.688C159.609 107.672 159.691 107.656 159.777 107.641C159.871 107.625 159.953 107.609 160.023 107.594C160.102 107.578 160.156 107.57 160.188 107.57C160.203 107.57 160.238 107.559 160.293 107.535C160.355 107.504 160.391 107.488 160.398 107.488H160.773C160.789 107.48 160.809 107.473 160.832 107.465C160.848 107.457 160.863 107.449 160.879 107.441C160.902 107.434 160.922 107.43 160.938 107.43H161.055C161.305 107.43 161.512 107.453 161.676 107.5C161.84 107.547 162.027 107.621 162.238 107.723C162.246 107.723 162.277 107.73 162.332 107.746C162.395 107.754 162.434 107.766 162.449 107.781C162.496 107.805 162.539 107.836 162.578 107.875C162.617 107.914 162.656 107.957 162.695 108.004C162.734 108.043 162.773 108.078 162.812 108.109C162.859 108.141 162.91 108.156 162.965 108.156C163.02 108.156 163.07 108.141 163.117 108.109C163.164 108.078 163.207 108.043 163.246 108.004C163.285 107.957 163.324 107.918 163.363 107.887C163.41 107.855 163.465 107.84 163.527 107.84C163.715 107.84 163.84 107.938 163.902 108.133V108.555V108.941C163.895 109.199 163.883 109.469 163.867 109.75C163.852 110.023 163.793 110.285 163.691 110.535C163.676 110.59 163.652 110.621 163.621 110.629C163.598 110.637 163.566 110.641 163.527 110.641C163.457 110.641 163.371 110.586 163.27 110.477C163.168 110.359 163.07 110.227 162.977 110.078C162.891 109.922 162.812 109.766 162.742 109.609C162.672 109.453 162.629 109.328 162.613 109.234V109.105C162.59 108.965 162.543 108.852 162.473 108.766C162.402 108.672 162.316 108.594 162.215 108.531C162.121 108.469 162.016 108.414 161.898 108.367C161.789 108.312 161.676 108.262 161.559 108.215C161.551 108.215 161.508 108.191 161.43 108.145C161.352 108.098 161.297 108.07 161.266 108.062C161.25 108.078 161.227 108.09 161.195 108.098C161.172 108.105 161.145 108.113 161.113 108.121C161.09 108.129 161.07 108.133 161.055 108.133C160.828 108.242 160.621 108.34 160.434 108.426C160.246 108.512 160.086 108.617 159.953 108.742C159.82 108.867 159.715 109.023 159.637 109.211C159.559 109.391 159.52 109.625 159.52 109.914C159.52 110.109 159.562 110.273 159.648 110.406C159.734 110.531 159.84 110.641 159.965 110.734C160.098 110.82 160.242 110.902 160.398 110.98C160.562 111.051 160.715 111.125 160.855 111.203C161.004 111.305 161.152 111.406 161.301 111.508C161.449 111.602 161.609 111.672 161.781 111.719C161.867 111.742 161.965 111.77 162.074 111.801C162.184 111.832 162.293 111.867 162.402 111.906C162.512 111.945 162.617 111.988 162.719 112.035C162.82 112.082 162.902 112.129 162.965 112.176C163.379 112.48 163.699 112.852 163.926 113.289C164.16 113.727 164.277 114.207 164.277 114.73C164.277 115.027 164.227 115.328 164.125 115.633C164.023 115.93 163.898 116.215 163.75 116.488C163.352 117.027 162.855 117.414 162.262 117.648C161.668 117.883 161.043 118 160.387 118H160.27C160.254 118 160.215 117.988 160.152 117.965C160.098 117.934 160.062 117.918 160.047 117.918C160.008 117.91 159.945 117.895 159.859 117.871C159.781 117.848 159.699 117.824 159.613 117.801C159.527 117.777 159.445 117.758 159.367 117.742C159.297 117.719 159.25 117.707 159.227 117.707C159.047 117.652 158.871 117.602 158.699 117.555C158.535 117.5 158.375 117.406 158.219 117.273C158.195 117.258 158.16 117.234 158.113 117.203C158.074 117.172 158.031 117.137 157.984 117.098C157.938 117.059 157.895 117.02 157.855 116.98C157.816 116.934 157.793 116.887 157.785 116.84C157.785 116.832 157.781 116.793 157.773 116.723C157.766 116.652 157.758 116.57 157.75 116.477C157.742 116.383 157.734 116.289 157.727 116.195C157.719 116.094 157.711 116.012 157.703 115.949V115.914ZM166.82 113.852C166.82 113.188 166.844 112.523 166.891 111.859C166.945 111.195 166.973 110.52 166.973 109.832V109.574C166.926 109.488 166.844 109.426 166.727 109.387C166.617 109.348 166.5 109.312 166.375 109.281C166.258 109.242 166.152 109.203 166.059 109.164C165.973 109.117 165.93 109.043 165.93 108.941V108.824C165.961 108.793 166.012 108.742 166.082 108.672C166.16 108.594 166.242 108.512 166.328 108.426C166.422 108.34 166.504 108.262 166.574 108.191C166.652 108.113 166.707 108.055 166.738 108.016C166.762 108.008 166.789 107.977 166.82 107.922C166.859 107.867 166.879 107.832 166.879 107.816C166.895 107.809 166.91 107.797 166.926 107.781C166.949 107.758 166.965 107.746 166.973 107.746C166.973 107.73 167.004 107.703 167.066 107.664C167.129 107.625 167.172 107.598 167.195 107.582C167.219 107.551 167.254 107.504 167.301 107.441C167.348 107.379 167.398 107.316 167.453 107.254C167.508 107.184 167.555 107.121 167.594 107.066C167.641 107.004 167.672 106.961 167.688 106.938C167.711 106.914 167.746 106.852 167.793 106.75C167.848 106.641 167.902 106.527 167.957 106.41C168.02 106.293 168.074 106.188 168.121 106.094C168.168 105.992 168.199 105.93 168.215 105.906C168.215 105.906 168.223 105.895 168.238 105.871C168.262 105.84 168.285 105.809 168.309 105.777C168.34 105.738 168.367 105.707 168.391 105.684C168.414 105.652 168.43 105.629 168.438 105.613C168.453 105.566 168.465 105.516 168.473 105.461C168.488 105.398 168.504 105.344 168.52 105.297C168.535 105.242 168.562 105.199 168.602 105.168C168.641 105.129 168.695 105.109 168.766 105.109C168.844 105.109 168.906 105.145 168.953 105.215C169 105.285 169.035 105.367 169.059 105.461C169.082 105.555 169.094 105.648 169.094 105.742C169.102 105.828 169.105 105.891 169.105 105.93C169.105 106.117 169.086 106.301 169.047 106.48C169.016 106.652 169 106.832 169 107.02C169 107.199 169.02 107.34 169.059 107.441C169.098 107.535 169.156 107.605 169.234 107.652C169.312 107.699 169.414 107.727 169.539 107.734C169.664 107.742 169.809 107.746 169.973 107.746H170.406C170.469 107.676 170.543 107.633 170.629 107.617C170.723 107.594 170.812 107.582 170.898 107.582H171.086H171.52C171.566 107.652 171.633 107.695 171.719 107.711C171.812 107.719 171.902 107.73 171.988 107.746C172.074 107.754 172.148 107.773 172.211 107.805C172.281 107.836 172.316 107.906 172.316 108.016V109C172.316 109.062 172.27 109.113 172.176 109.152C172.09 109.184 171.988 109.211 171.871 109.234C171.754 109.25 171.641 109.262 171.531 109.27C171.43 109.277 171.363 109.281 171.332 109.281H171.145C171.113 109.281 171.035 109.277 170.91 109.27C170.793 109.262 170.664 109.254 170.523 109.246C170.383 109.23 170.25 109.219 170.125 109.211C170.008 109.203 169.938 109.199 169.914 109.199H169.832C169.824 109.199 169.797 109.195 169.75 109.188C169.711 109.18 169.664 109.176 169.609 109.176C169.562 109.168 169.516 109.16 169.469 109.152C169.43 109.145 169.406 109.141 169.398 109.141H169.363C169.262 109.141 169.18 109.176 169.117 109.246C169.055 109.309 169.004 109.387 168.965 109.48C168.934 109.574 168.91 109.672 168.895 109.773C168.879 109.867 168.871 109.945 168.871 110.008C168.848 110.328 168.828 110.602 168.812 110.828C168.797 111.047 168.789 111.297 168.789 111.578C168.789 111.734 168.793 111.871 168.801 111.988C168.809 112.105 168.832 112.254 168.871 112.434V115.445C168.871 115.453 168.879 115.496 168.895 115.574C168.918 115.652 168.93 115.699 168.93 115.715C168.945 115.746 168.973 115.793 169.012 115.855C169.051 115.918 169.09 115.984 169.129 116.055C169.168 116.125 169.203 116.191 169.234 116.254C169.266 116.316 169.289 116.359 169.305 116.383C169.484 116.641 169.695 116.797 169.938 116.852C170.18 116.898 170.441 116.922 170.723 116.922C170.855 116.922 171.012 116.91 171.191 116.887C171.371 116.863 171.527 116.82 171.66 116.758C171.676 116.742 171.711 116.715 171.766 116.676C171.828 116.637 171.867 116.617 171.883 116.617C171.883 116.609 171.898 116.605 171.93 116.605C171.969 116.605 171.996 116.605 172.012 116.605C172.098 116.605 172.168 116.625 172.223 116.664C172.285 116.695 172.316 116.766 172.316 116.875C172.316 117.016 172.266 117.133 172.164 117.227C172.07 117.312 171.977 117.398 171.883 117.484C171.703 117.656 171.516 117.766 171.32 117.812C171.133 117.859 170.934 117.922 170.723 118H169.105C169.09 118 169.043 117.992 168.965 117.977C168.887 117.961 168.828 117.941 168.789 117.918C168.562 117.832 168.363 117.762 168.191 117.707C168.027 117.652 167.859 117.559 167.688 117.426C167.492 117.277 167.336 117.094 167.219 116.875C167.102 116.656 167.012 116.422 166.949 116.172C166.895 115.922 166.859 115.664 166.844 115.398C166.828 115.125 166.82 114.863 166.82 114.613V113.852ZM198.027 115.141C198.027 115.281 198.047 115.422 198.086 115.562C198.133 115.703 198.195 115.832 198.273 115.949C198.352 116.059 198.449 116.148 198.566 116.219C198.684 116.289 198.82 116.324 198.977 116.324C199.203 116.324 199.43 116.316 199.656 116.301C199.891 116.285 200.109 116.234 200.312 116.148C200.492 116.102 200.656 116.031 200.805 115.938C200.953 115.836 201.105 115.742 201.262 115.656C201.309 115.367 201.336 115.113 201.344 114.895C201.352 114.676 201.355 114.43 201.355 114.156C201.355 113.906 201.352 113.68 201.344 113.477C201.336 113.266 201.309 113.039 201.262 112.797H201.121C200.988 112.797 200.863 112.816 200.746 112.855C200.629 112.887 200.512 112.93 200.395 112.984C200.285 113.031 200.176 113.082 200.066 113.137C199.965 113.191 199.855 113.242 199.738 113.289C199.629 113.344 199.539 113.383 199.469 113.406C199.406 113.422 199.32 113.465 199.211 113.535C199.094 113.621 198.965 113.723 198.824 113.84C198.691 113.957 198.566 114.086 198.449 114.227C198.332 114.367 198.23 114.516 198.145 114.672C198.066 114.82 198.027 114.977 198.027 115.141ZM196.352 115.656C196.352 115.391 196.41 115.133 196.527 114.883C196.652 114.633 196.812 114.402 197.008 114.191C197.203 113.98 197.418 113.793 197.652 113.629C197.887 113.465 198.117 113.332 198.344 113.23C198.352 113.23 198.375 113.223 198.414 113.207C198.461 113.191 198.508 113.18 198.555 113.172C198.602 113.156 198.645 113.141 198.684 113.125C198.73 113.109 198.762 113.102 198.777 113.102C198.785 113.094 198.809 113.078 198.848 113.055C198.895 113.023 198.941 112.992 198.988 112.961C199.035 112.922 199.078 112.887 199.117 112.855C199.164 112.824 199.195 112.805 199.211 112.797C199.469 112.641 199.754 112.516 200.066 112.422C200.387 112.32 200.691 112.23 200.98 112.152C201.129 112.098 201.254 112.043 201.355 111.988C201.457 111.934 201.523 111.812 201.555 111.625C201.555 111.617 201.559 111.59 201.566 111.543C201.574 111.488 201.582 111.426 201.59 111.355C201.598 111.285 201.605 111.215 201.613 111.145C201.621 111.066 201.625 111.008 201.625 110.969V110.934V110.875C201.625 110.805 201.621 110.715 201.613 110.605C201.605 110.488 201.598 110.379 201.59 110.277C201.582 110.168 201.574 110.074 201.566 109.996C201.559 109.918 201.555 109.875 201.555 109.867C201.523 109.688 201.457 109.516 201.355 109.352C201.262 109.18 201.141 109.031 200.992 108.906C200.844 108.773 200.68 108.668 200.5 108.59C200.32 108.512 200.133 108.473 199.938 108.473C199.766 108.473 199.598 108.492 199.434 108.531C199.277 108.562 199.137 108.621 199.012 108.707C198.895 108.785 198.793 108.891 198.707 109.023C198.629 109.148 198.578 109.305 198.555 109.492C198.539 109.633 198.527 109.777 198.52 109.926C198.52 110.074 198.461 110.199 198.344 110.301C198.32 110.324 198.285 110.359 198.238 110.406C198.191 110.445 198.141 110.484 198.086 110.523C198.039 110.562 197.996 110.598 197.957 110.629C197.918 110.652 197.895 110.668 197.887 110.676C197.824 110.723 197.738 110.785 197.629 110.863C197.527 110.934 197.469 110.969 197.453 110.969H196.586C196.57 110.969 196.543 110.941 196.504 110.887C196.473 110.824 196.441 110.773 196.41 110.734C196.363 110.633 196.328 110.566 196.305 110.535C196.289 110.496 196.281 110.426 196.281 110.324V110.242C196.406 109.906 196.594 109.621 196.844 109.387C197.102 109.145 197.379 108.938 197.676 108.766C197.684 108.766 197.695 108.754 197.711 108.73C197.727 108.699 197.742 108.684 197.758 108.684C198.141 108.348 198.574 108.07 199.059 107.852C199.543 107.633 200.051 107.523 200.582 107.523C200.754 107.523 200.902 107.531 201.027 107.547C201.152 107.562 201.27 107.582 201.379 107.605C201.496 107.629 201.613 107.66 201.73 107.699C201.848 107.73 201.984 107.77 202.141 107.816C202.359 107.973 202.551 108.125 202.715 108.273C202.879 108.422 203.016 108.582 203.125 108.754C203.234 108.926 203.316 109.117 203.371 109.328C203.434 109.539 203.465 109.777 203.465 110.043V110.09C203.395 111.027 203.316 111.973 203.23 112.926C203.145 113.871 203.102 114.809 203.102 115.738C203.102 115.988 203.148 116.211 203.242 116.406C203.336 116.594 203.5 116.73 203.734 116.816H203.875C204.039 116.816 204.188 116.801 204.32 116.77C204.461 116.73 204.594 116.684 204.719 116.629C204.852 116.566 204.984 116.504 205.117 116.441C205.25 116.371 205.387 116.305 205.527 116.242V116.383C205.527 116.562 205.477 116.703 205.375 116.805C205.281 116.906 205.18 117.016 205.07 117.133C205.062 117.141 205.043 117.16 205.012 117.191C204.98 117.223 204.949 117.262 204.918 117.309C204.887 117.348 204.855 117.387 204.824 117.426C204.801 117.457 204.785 117.477 204.777 117.484C204.73 117.547 204.676 117.594 204.613 117.625C204.559 117.648 204.488 117.676 204.402 117.707C204.215 117.785 203.996 117.859 203.746 117.93C203.504 117.992 203.27 118.023 203.043 118.023C203.004 118.023 202.965 118.023 202.926 118.023C202.887 118.023 202.848 118.016 202.809 118C202.77 117.992 202.707 117.977 202.621 117.953C202.535 117.93 202.445 117.902 202.352 117.871C202.258 117.84 202.172 117.809 202.094 117.777C202.016 117.746 201.961 117.723 201.93 117.707C201.906 117.691 201.855 117.648 201.777 117.578C201.699 117.5 201.648 117.449 201.625 117.426C201.594 117.387 201.551 117.312 201.496 117.203C201.449 117.086 201.395 116.965 201.332 116.84C201.277 116.715 201.223 116.605 201.168 116.512C201.121 116.418 201.086 116.371 201.062 116.371C201.016 116.371 200.961 116.406 200.898 116.477C200.836 116.539 200.773 116.613 200.711 116.699C200.648 116.785 200.59 116.871 200.535 116.957C200.48 117.043 200.434 117.102 200.395 117.133C200.246 117.258 200.109 117.375 199.984 117.484C199.859 117.586 199.73 117.676 199.598 117.754C199.465 117.832 199.32 117.895 199.164 117.941C199.016 117.98 198.84 118 198.637 118C198.527 118 198.43 118 198.344 118C198.266 117.992 198.191 117.98 198.121 117.965C198.051 117.949 197.98 117.926 197.91 117.895C197.84 117.863 197.762 117.82 197.676 117.766C197.426 117.633 197.184 117.48 196.949 117.309C196.723 117.137 196.578 116.906 196.516 116.617C196.461 116.43 196.418 116.262 196.387 116.113C196.363 115.965 196.352 115.812 196.352 115.656ZM205.809 117.789C205.809 117.68 205.84 117.59 205.902 117.52C205.965 117.441 206.039 117.379 206.125 117.332C206.219 117.285 206.316 117.254 206.418 117.238C206.52 117.215 206.613 117.199 206.699 117.191H207.367C207.453 117.152 207.516 117.094 207.555 117.016C207.594 116.93 207.617 116.836 207.625 116.734C207.641 116.633 207.648 116.531 207.648 116.43C207.648 116.32 207.652 116.227 207.66 116.148C207.668 116.141 207.676 116.125 207.684 116.102C207.691 116.086 207.699 116.07 207.707 116.055C207.715 116.039 207.727 116.023 207.742 116.008C207.758 115.992 207.77 115.957 207.777 115.902C207.793 115.848 207.801 115.812 207.801 115.797V112.727C207.801 112.703 207.812 112.652 207.836 112.574C207.867 112.496 207.883 112.449 207.883 112.434V112.387C207.883 112.27 207.867 112.152 207.836 112.035C207.812 111.918 207.801 111.793 207.801 111.66C207.801 111.504 207.812 111.359 207.836 111.227C207.867 111.086 207.883 110.941 207.883 110.793V110.676C207.883 110.629 207.879 110.566 207.871 110.488C207.863 110.402 207.852 110.316 207.836 110.23C207.828 110.137 207.82 110.059 207.812 109.996C207.805 109.926 207.801 109.883 207.801 109.867C207.777 109.703 207.672 109.594 207.484 109.539C207.297 109.484 207.094 109.441 206.875 109.41C206.664 109.379 206.469 109.344 206.289 109.305C206.117 109.258 206.031 109.164 206.031 109.023C206.031 108.922 206.113 108.832 206.277 108.754C206.441 108.668 206.629 108.594 206.84 108.531C207.051 108.469 207.258 108.414 207.461 108.367C207.664 108.32 207.805 108.281 207.883 108.25C207.898 108.242 207.934 108.223 207.988 108.191C208.043 108.16 208.102 108.129 208.164 108.098C208.227 108.066 208.285 108.039 208.34 108.016C208.402 107.984 208.445 107.965 208.469 107.957C208.477 107.957 208.504 107.949 208.551 107.934C208.605 107.918 208.66 107.902 208.715 107.887C208.777 107.863 208.832 107.844 208.879 107.828C208.934 107.812 208.969 107.805 208.984 107.805C208.984 107.805 209 107.801 209.031 107.793C209.07 107.777 209.109 107.762 209.148 107.746C209.188 107.73 209.227 107.715 209.266 107.699C209.305 107.684 209.328 107.672 209.336 107.664H209.371H209.418C209.574 107.727 209.684 107.789 209.746 107.852C209.816 107.906 209.852 108.027 209.852 108.215C209.852 108.316 209.84 108.418 209.816 108.52C209.801 108.613 209.793 108.703 209.793 108.789V109C209.793 109.102 209.801 109.195 209.816 109.281C209.84 109.359 209.895 109.43 209.98 109.492H210.039C210.133 109.492 210.227 109.453 210.32 109.375C210.422 109.297 210.52 109.207 210.613 109.105C210.707 108.996 210.793 108.891 210.871 108.789C210.957 108.68 211.031 108.594 211.094 108.531C211.289 108.375 211.492 108.238 211.703 108.121C211.914 108.004 212.129 107.871 212.348 107.723C212.371 107.738 212.41 107.746 212.465 107.746C212.551 107.746 212.652 107.734 212.77 107.711C212.887 107.68 212.988 107.664 213.074 107.664C213.199 107.664 213.328 107.684 213.461 107.723C213.594 107.754 213.711 107.809 213.812 107.887C213.922 107.957 214.008 108.047 214.07 108.156C214.141 108.266 214.176 108.391 214.176 108.531V108.684C214.152 108.848 214.133 109.008 214.117 109.164C214.109 109.312 214.082 109.445 214.035 109.562C213.988 109.68 213.91 109.773 213.801 109.844C213.691 109.914 213.527 109.949 213.309 109.949H213.215C213.191 109.941 213.156 109.934 213.109 109.926C213.062 109.91 213.016 109.898 212.969 109.891C212.922 109.883 212.879 109.879 212.84 109.879C212.809 109.871 212.789 109.867 212.781 109.867C212.773 109.859 212.754 109.844 212.723 109.82C212.699 109.797 212.672 109.773 212.641 109.75C212.609 109.719 212.578 109.691 212.547 109.668C212.523 109.645 212.508 109.633 212.5 109.633H212.324H211.891C211.883 109.633 211.855 109.629 211.809 109.621C211.762 109.613 211.707 109.609 211.645 109.609C211.59 109.602 211.535 109.594 211.48 109.586C211.434 109.578 211.406 109.574 211.398 109.574H211.328C211.211 109.574 211.078 109.586 210.93 109.609C210.789 109.633 210.648 109.676 210.508 109.738C210.367 109.793 210.242 109.867 210.133 109.961C210.023 110.047 209.953 110.16 209.922 110.301C209.938 111.129 209.93 111.953 209.898 112.773C209.867 113.594 209.852 114.418 209.852 115.246C209.852 115.316 209.848 115.41 209.84 115.527C209.832 115.637 209.828 115.758 209.828 115.891C209.828 116.023 209.832 116.16 209.84 116.301C209.855 116.441 209.879 116.574 209.91 116.699C209.941 116.816 209.984 116.922 210.039 117.016C210.102 117.102 210.184 117.16 210.285 117.191C210.316 117.191 210.371 117.188 210.449 117.18C210.535 117.172 210.629 117.168 210.73 117.168C210.832 117.168 210.922 117.172 211 117.18C211.078 117.188 211.133 117.191 211.164 117.191C211.297 117.207 211.406 117.25 211.492 117.32C211.578 117.383 211.621 117.473 211.621 117.59C211.621 117.699 211.609 117.781 211.586 117.836C211.562 117.891 211.527 117.93 211.48 117.953C211.434 117.969 211.375 117.98 211.305 117.988C211.242 117.988 211.172 117.992 211.094 118C211.086 118 211.059 118.016 211.012 118.047C210.988 118.062 210.969 118.074 210.953 118.082H210.906C210.594 118.082 210.25 118.07 209.875 118.047C209.5 118.023 209.145 117.98 208.809 117.918H208.785C208.707 117.918 208.633 117.934 208.562 117.965C208.492 117.988 208.422 118 208.352 118C208.281 118 208.215 117.988 208.152 117.965C208.098 117.934 208.039 117.918 207.977 117.918H207.941C207.723 117.98 207.496 118.023 207.262 118.047C207.035 118.07 206.809 118.082 206.582 118.082H206.418C206.293 118.082 206.16 118.066 206.02 118.035C205.879 118.004 205.809 117.922 205.809 117.789ZM219.191 116.641C219.23 116.648 219.305 116.66 219.414 116.676C219.523 116.691 219.641 116.707 219.766 116.723C219.891 116.738 220.012 116.754 220.129 116.77C220.246 116.785 220.328 116.797 220.375 116.805H220.457C220.676 116.805 220.871 116.789 221.043 116.758C221.223 116.719 221.414 116.66 221.617 116.582C221.625 116.582 221.656 116.57 221.711 116.547C221.766 116.516 221.797 116.5 221.805 116.5C221.836 116.453 221.871 116.395 221.91 116.324C221.957 116.254 222 116.176 222.039 116.09C222.078 116.004 222.109 115.918 222.133 115.832C222.164 115.738 222.18 115.652 222.18 115.574V115.562C222.18 115.531 222.176 115.484 222.168 115.422C222.168 115.359 222.164 115.293 222.156 115.223C222.148 115.152 222.141 115.086 222.133 115.023C222.125 114.961 222.117 114.918 222.109 114.895V111.367C222.109 111.32 222.105 111.234 222.098 111.109C222.098 110.977 222.094 110.836 222.086 110.688C222.078 110.539 222.07 110.398 222.062 110.266C222.055 110.133 222.051 110.039 222.051 109.984C222.051 109.945 222.035 109.891 222.004 109.82C221.98 109.75 221.969 109.707 221.969 109.691C221.914 109.59 221.844 109.512 221.758 109.457C221.672 109.402 221.582 109.359 221.488 109.328C221.395 109.289 221.301 109.254 221.207 109.223C221.113 109.191 221.027 109.145 220.949 109.082C220.676 108.902 220.422 108.754 220.188 108.637C219.953 108.512 219.668 108.449 219.332 108.449C219.223 108.449 219.113 108.48 219.004 108.543C218.902 108.598 218.801 108.668 218.699 108.754C218.605 108.84 218.512 108.93 218.418 109.023C218.324 109.117 218.234 109.195 218.148 109.258C218.133 109.266 218.121 109.273 218.113 109.281C218.098 109.297 218.09 109.309 218.09 109.316C217.887 109.582 217.711 109.867 217.562 110.172C217.414 110.477 217.273 110.777 217.141 111.074C217.125 111.105 217.109 111.145 217.094 111.191C217.078 111.23 217.062 111.27 217.047 111.309C217.023 111.355 217.004 111.402 216.988 111.449V113.055C217.035 113.211 217.059 113.371 217.059 113.535C217.066 113.691 217.094 113.855 217.141 114.027C217.25 114.496 217.426 114.898 217.668 115.234C217.91 115.562 218.215 115.887 218.582 116.207C218.684 116.293 218.777 116.379 218.863 116.465C218.949 116.551 219.059 116.609 219.191 116.641ZM214.914 113.746V113.723C214.938 113.676 214.965 113.609 214.996 113.523C215.035 113.43 215.055 113.352 215.055 113.289C215.055 113.25 215.043 113.211 215.02 113.172C215.004 113.133 214.996 113.082 214.996 113.02C214.996 112.902 215.02 112.781 215.066 112.656C215.113 112.523 215.145 112.387 215.16 112.246C215.176 111.902 215.215 111.578 215.277 111.273C215.348 110.969 215.477 110.664 215.664 110.359C215.664 110.344 215.672 110.328 215.688 110.312C215.711 110.289 215.723 110.273 215.723 110.266C215.754 110.234 215.793 110.191 215.84 110.137C215.887 110.082 215.934 110.027 215.98 109.973C216.027 109.918 216.07 109.871 216.109 109.832C216.148 109.785 216.172 109.758 216.18 109.75C216.188 109.742 216.203 109.719 216.227 109.68C216.258 109.633 216.289 109.586 216.32 109.539C216.352 109.484 216.379 109.438 216.402 109.398C216.434 109.352 216.457 109.324 216.473 109.316C216.559 109.23 216.676 109.16 216.824 109.105C216.98 109.043 217.105 108.969 217.199 108.883C217.215 108.867 217.242 108.84 217.281 108.801C217.328 108.754 217.375 108.707 217.422 108.66C217.469 108.605 217.512 108.559 217.551 108.52C217.598 108.48 217.625 108.457 217.633 108.449C217.641 108.441 217.668 108.43 217.715 108.414C217.762 108.398 217.809 108.383 217.855 108.367C217.91 108.344 217.957 108.324 217.996 108.309C218.043 108.293 218.074 108.281 218.09 108.273C218.129 108.273 218.148 108.254 218.148 108.215C218.555 108.137 218.973 108.055 219.402 107.969C219.832 107.883 220.262 107.84 220.691 107.84C220.848 107.84 221 107.859 221.148 107.898C221.305 107.93 221.461 107.945 221.617 107.945C221.703 107.945 221.773 107.91 221.828 107.84C221.883 107.77 221.926 107.688 221.957 107.594C221.988 107.5 222.008 107.402 222.016 107.301C222.031 107.191 222.043 107.102 222.051 107.031C222.066 106.68 222.078 106.312 222.086 105.93C222.102 105.547 222.109 105.168 222.109 104.793V104.418C222.109 104.387 222.105 104.32 222.098 104.219C222.09 104.117 222.082 104.012 222.074 103.902C222.074 103.785 222.07 103.676 222.062 103.574C222.055 103.473 222.051 103.406 222.051 103.375V103.211V102.977C222.051 102.867 222.047 102.762 222.039 102.66C222.031 102.551 222.008 102.453 221.969 102.367C221.922 102.266 221.832 102.188 221.699 102.133C221.566 102.078 221.426 102.031 221.277 101.992C221.137 101.953 221.008 101.914 220.891 101.875C220.781 101.828 220.727 101.77 220.727 101.699C220.727 101.676 220.738 101.645 220.762 101.605C220.793 101.559 220.824 101.516 220.855 101.477C220.895 101.438 220.934 101.402 220.973 101.371C221.012 101.34 221.047 101.324 221.078 101.324C221.094 101.324 221.129 101.34 221.184 101.371C221.246 101.395 221.285 101.406 221.301 101.406C221.324 101.406 221.355 101.395 221.395 101.371C221.418 101.355 221.438 101.34 221.453 101.324C221.477 101.316 221.527 101.301 221.605 101.277C221.691 101.246 221.781 101.215 221.875 101.184C221.969 101.145 222.059 101.113 222.145 101.09C222.238 101.059 222.305 101.039 222.344 101.031C222.594 100.945 222.836 100.852 223.07 100.75C223.312 100.648 223.57 100.598 223.844 100.598H223.973C224.059 100.598 224.133 100.609 224.195 100.633C224.266 100.656 224.312 100.715 224.336 100.809V101.441C224.336 101.863 224.316 102.285 224.277 102.707C224.246 103.121 224.23 103.547 224.23 103.984C224.23 104.07 224.234 104.137 224.242 104.184C224.25 104.23 224.281 104.309 224.336 104.418C224.328 104.465 224.32 104.547 224.312 104.664C224.305 104.781 224.293 104.906 224.277 105.039C224.27 105.172 224.262 105.297 224.254 105.414C224.246 105.531 224.238 105.613 224.23 105.66C224.215 106.551 224.203 107.441 224.195 108.332C224.195 109.215 224.188 110.102 224.172 110.992C224.172 111.023 224.168 111.098 224.16 111.215C224.152 111.324 224.141 111.449 224.125 111.59C224.117 111.723 224.109 111.848 224.102 111.965C224.094 112.074 224.09 112.145 224.09 112.176V112.504C224.09 113.129 224.105 113.746 224.137 114.355C224.176 114.965 224.188 115.582 224.172 116.207C224.195 116.348 224.254 116.457 224.348 116.535C224.449 116.613 224.566 116.676 224.699 116.723C224.832 116.762 224.969 116.785 225.109 116.793C225.25 116.801 225.371 116.805 225.473 116.805C225.512 116.812 225.547 116.848 225.578 116.91C225.609 116.965 225.625 117 225.625 117.016C225.625 117.055 225.609 117.094 225.578 117.133C225.555 117.172 225.523 117.207 225.484 117.238C225.445 117.27 225.406 117.301 225.367 117.332C225.328 117.355 225.297 117.375 225.273 117.391C225.258 117.406 225.219 117.422 225.156 117.438C225.094 117.445 225.055 117.449 225.039 117.449C224.781 117.52 224.527 117.594 224.277 117.672C224.027 117.742 223.77 117.812 223.504 117.883C223.348 117.93 223.195 117.98 223.047 118.035C222.906 118.09 222.75 118.117 222.578 118.117C222.422 118.117 222.316 118.062 222.262 117.953C222.215 117.844 222.18 117.727 222.156 117.602C222.141 117.469 222.125 117.348 222.109 117.238C222.094 117.129 222.047 117.074 221.969 117.074C221.953 117.074 221.906 117.09 221.828 117.121C221.758 117.145 221.707 117.16 221.676 117.168C221.348 117.441 221 117.668 220.633 117.848C220.266 118.027 219.871 118.117 219.449 118.117C218.871 118.117 218.336 118.035 217.844 117.871C217.352 117.707 216.914 117.395 216.531 116.934C216.523 116.918 216.516 116.898 216.508 116.875C216.492 116.844 216.48 116.82 216.473 116.805C216.473 116.797 216.465 116.773 216.449 116.734C216.434 116.695 216.418 116.656 216.402 116.617C216.387 116.578 216.371 116.543 216.355 116.512C216.34 116.473 216.328 116.449 216.32 116.441C216.32 116.434 216.305 116.426 216.273 116.418C216.25 116.41 216.219 116.402 216.18 116.395C216.148 116.387 216.117 116.383 216.086 116.383C216.062 116.375 216.047 116.371 216.039 116.371C215.906 116.301 215.773 116.152 215.641 115.926C215.508 115.699 215.387 115.449 215.277 115.176C215.168 114.895 215.078 114.621 215.008 114.355C214.945 114.09 214.914 113.887 214.914 113.746Z" fill="white"/>
</g>
<defs>
<clipPath id="clip0_1182_4307">
<rect width="360" height="220" fill="white"/>
</clipPath>
</defs>
</svg>
